<?xml version="1.0" encoding="iso-8859-1"?>
<!-- Generator: Adobe Illustrator 19.0.0, SVG Export Plug-In . SVG Version: 6.00 Build 0)  -->
<svg version="1.1" id="Capa_1" xmlns="http://www.w3.org/2000/svg" xmlns:xlink="http://www.w3.org/1999/xlink" x="0px" y="0px"
	 viewBox="0 0 511.999 511.999" style="enable-background:new 0 0 511.999 511.999;" xml:space="preserve">
<circle style="fill:#4BC999;" cx="255.999" cy="255.999" r="255.999"/>
<path style="fill:#494B5B;" d="M284.362,359.934v150.507c-0.742,0.084-1.494,0.167-2.236,0.24
	c-8.589,0.867-17.303,1.317-26.122,1.317c-1.139,0-2.278-0.01-3.406-0.021c-7.659-0.104-15.235-0.543-22.716-1.296
	c-0.742-0.073-1.494-0.157-2.236-0.24V359.934H284.362z"/>
<path style="fill:#5C5E70;" d="M284.362,393.966v116.475c-0.742,0.084-1.494,0.167-2.236,0.24
	c-8.589,0.867-17.303,1.317-26.122,1.317c-1.139,0-2.278-0.01-3.406-0.021v-95.472c0-12.455,10.094-22.538,22.538-22.538
	L284.362,393.966L284.362,393.966z"/>
<path style="fill:#34ABE0;" d="M400.591,367.565H111.41c-21.645,0-39.192-17.547-39.192-39.192V39.192
	C72.217,17.547,89.764,0,111.41,0h289.181c21.645,0,39.192,17.547,39.192,39.192v289.181
	C439.783,350.018,422.236,367.565,400.591,367.565z"/>
<g>
	<path style="fill:#FCF8F2;" d="M397.232,20.991H114.765c-11.891,0-21.556,9.665-21.556,21.556v282.467
		c0,11.891,9.665,21.567,21.556,21.567h282.467c11.891,0,21.567-9.676,21.567-21.567V42.547
		C418.798,30.656,409.123,20.991,397.232,20.991z M408.59,325.014c0,6.259-5.099,11.358-11.358,11.358H114.765
		c-6.259,0-11.348-5.099-11.348-11.358V42.547c0-6.259,5.089-11.348,11.348-11.348h282.467c6.259,0,11.358,5.089,11.358,11.348
		V325.014z"/>
	<path style="fill:#FCF8F2;" d="M265.47,88.794H211.23c-9.174,0-15.203,5.768-15.203,12.319v166.671
		c0,8.38,10.219,12.581,20.438,12.581c10.219,0,20.438-4.2,20.438-12.581v-56.612h25.945c36.164,0,64.47-16.771,64.47-60.792v-1.317
		C327.318,105.042,300.067,88.794,265.47,88.794z M286.441,153.525c0,17.815-8.913,26.206-23.594,26.206h-25.945v-55.296h25.945
		c14.681,0,23.594,8.38,23.594,26.206V153.525z"/>
</g>
<g>
</g>
<g>
</g>
<g>
</g>
<g>
</g>
<g>
</g>
<g>
</g>
<g>
</g>
<g>
</g>
<g>
</g>
<g>
</g>
<g>
</g>
<g>
</g>
<g>
</g>
<g>
</g>
<g>
</g>
</svg>
